<svg width="40" height="40" viewBox="0 0 40 40" fill="none" xmlns="http://www.w3.org/2000/svg">
<path d="M24.9833 27.05V25H20.4733V26H23.9833V27.05C23.6344 27.1631 23.3374 27.397 23.1456 27.7097C22.9538 28.0223 22.8799 28.3931 22.9372 28.7554C22.9944 29.1176 23.1791 29.4476 23.458 29.6858C23.7368 29.924 24.0915 30.0549 24.4583 30.0549C24.8251 30.0549 25.1798 29.924 25.4586 29.6858C25.7375 29.4476 25.9221 29.1176 25.9794 28.7554C26.0367 28.3931 25.9628 28.0223 25.771 27.7097C25.5792 27.397 25.2822 27.1631 24.9333 27.05H24.9833ZM24.5033 29.05C24.3952 29.0621 24.2859 29.0412 24.1899 28.9901C24.0938 28.939 24.0155 28.8601 23.965 28.7637C23.9146 28.6673 23.8944 28.558 23.9072 28.4499C23.92 28.3419 23.9651 28.2402 24.0366 28.1583C24.1081 28.0763 24.2028 28.0178 24.3081 27.9906C24.4134 27.9633 24.5245 27.9685 24.6268 28.0054C24.7291 28.0423 24.8179 28.1093 24.8815 28.1976C24.9451 28.2858 24.9806 28.3912 24.9833 28.5C24.9737 28.6311 24.9167 28.7543 24.8228 28.8464C24.7289 28.9384 24.6046 28.993 24.4733 29L24.5033 29.05Z" fill="#0053D6"/>
<path d="M20.4733 14H15.4733C15.9885 12.1565 16.9581 10.4717 18.2933 9.10001L16.9833 9.41001C15.7964 10.7254 14.9274 12.2957 14.4433 14H10.7833L10.2033 15H14.2033C13.8586 16.4759 13.6742 17.9846 13.6533 19.5H8.98329V20.5H13.5933C13.6186 22.0151 13.803 23.5234 14.1433 25H10.1433L10.7233 26H14.3833C14.8733 27.7088 15.7647 29.2757 16.9833 30.57L18.3833 30.88C17.0359 29.5171 16.0495 27.8399 15.5133 26H20.5133V32H19.9833C17.8841 31.9971 15.8225 31.4436 14.0041 30.3947C12.1858 29.3458 10.6744 27.8383 9.62083 26.0227C8.56728 24.2071 8.00844 22.1469 8.00009 20.0477C7.99175 17.9486 8.5342 15.884 9.57329 14.06V14C10.628 12.1732 12.1457 10.6567 13.9733 9.60328C15.8009 8.5499 17.8739 7.9969 19.9833 8.00001C20.1533 8.00001 20.3233 8.00001 20.4833 8.00001V9.00001L20.4733 14Z" fill="#0053D6"/>
<path d="M20.4733 15V19.5H14.6233C14.6552 17.9823 14.8564 16.473 15.2233 15H20.4733Z" fill="#0053D6"/>
<path d="M20.4733 20.5L20.4733 25H15.2233C14.8551 23.5273 14.6538 22.0178 14.6233 20.5H20.4733Z" fill="#0053D6"/>
<path d="M29.4733 16C29.1594 15.9976 28.8524 16.0924 28.5946 16.2715C28.3367 16.4506 28.1407 16.705 28.0333 17H24.4833V19.5H20.4833V20.5H24.4833V23H26.0333C26.1515 23.342 26.3871 23.631 26.6983 23.8157C27.0094 24.0004 27.3759 24.0688 27.7328 24.0089C28.0896 23.9489 28.4136 23.7644 28.6473 23.4882C28.881 23.212 29.0093 22.8619 29.0093 22.5C29.0093 22.1382 28.881 21.7881 28.6473 21.5118C28.4136 21.2356 28.0896 21.0511 27.7328 20.9912C27.3759 20.9312 27.0094 20.9997 26.6983 21.1844C26.3871 21.3691 26.1515 21.6581 26.0333 22H25.4833V18H28.0333C28.1202 18.2693 28.2801 18.5092 28.4952 18.693C28.7103 18.8769 28.9722 18.9975 29.2518 19.0414C29.5313 19.0853 29.8175 19.0509 30.0787 18.9419C30.3398 18.8328 30.5656 18.6536 30.7309 18.4239C30.8963 18.1943 30.9947 17.9233 31.0152 17.6411C31.0358 17.3589 30.9777 17.0765 30.8474 16.8253C30.717 16.5741 30.5196 16.364 30.277 16.2183C30.0345 16.0726 29.7562 15.9971 29.4733 16ZM27.4733 22C27.5809 21.998 27.6867 22.0283 27.777 22.0869C27.8673 22.1454 27.9381 22.2296 27.9802 22.3287C28.0223 22.4278 28.0338 22.5372 28.0133 22.6428C27.9928 22.7485 27.9411 22.8457 27.865 22.9218C27.7889 22.9979 27.6918 23.0495 27.5861 23.07C27.4804 23.0905 27.371 23.079 27.272 23.0369C27.1729 22.9948 27.0887 22.9241 27.0301 22.8337C26.9715 22.7434 26.9413 22.6377 26.9433 22.53C26.9458 22.3903 27.0025 22.2569 27.1013 22.1581C27.2002 22.0593 27.3335 22.0026 27.4733 22ZM29.4733 18.07C29.3667 18.0758 29.2608 18.0498 29.169 17.9954C29.0771 17.941 29.0035 17.8607 28.9573 17.7644C28.9111 17.6682 28.8945 17.5605 28.9095 17.4548C28.9246 17.3491 28.9706 17.2503 29.0417 17.1707C29.1129 17.0912 29.206 17.0345 29.3094 17.0079C29.4127 16.9813 29.5217 16.9858 29.6224 17.0211C29.7232 17.0563 29.8112 17.1206 29.8754 17.2059C29.9397 17.2911 29.9772 17.3935 29.9833 17.5C29.9737 17.6312 29.9166 17.7543 29.8227 17.8464C29.7288 17.9384 29.6046 17.9931 29.4733 18V18.07Z" fill="#0053D6"/>
<path d="M24.4733 10C24.0984 9.98247 23.73 10.1033 23.4384 10.3397C23.1468 10.576 22.9522 10.9113 22.8917 11.2817C22.8312 11.6522 22.909 12.0319 23.1103 12.3488C23.3115 12.6656 23.6223 12.8974 23.9833 13V14L20.4733 14V15L24.9833 15V13C25.3487 12.8983 25.6634 12.6644 25.8661 12.3437C26.0688 12.0231 26.1452 11.6386 26.0804 11.2648C26.0156 10.891 25.8143 10.5546 25.5155 10.3209C25.2167 10.0872 24.8417 9.97285 24.4633 10H24.4733ZM24.4733 12.07C24.3667 12.0758 24.2608 12.0498 24.169 11.9954C24.0772 11.941 24.0035 11.8607 23.9573 11.7644C23.9112 11.6682 23.8945 11.5605 23.9096 11.4548C23.9246 11.3491 23.9706 11.2503 24.0417 11.1707C24.1129 11.0912 24.2061 11.0345 24.3094 11.0079C24.4128 10.9813 24.5217 10.9859 24.6224 11.0211C24.7232 11.0563 24.8112 11.1206 24.8755 11.2059C24.9397 11.2911 24.9772 11.3935 24.9833 11.5C24.9737 11.6312 24.9167 11.7543 24.8228 11.8464C24.7289 11.9384 24.6046 11.9931 24.4733 12V12.07Z" fill="#0053D6"/>
</svg>
